<?xml version="1.0" encoding="utf-8"?>
<!-- Generator: Adobe Illustrator 16.0.0, SVG Export Plug-In . SVG Version: 6.00 Build 0)  -->
<!DOCTYPE svg PUBLIC "-//W3C//DTD SVG 1.1//EN" "http://www.w3.org/Graphics/SVG/1.1/DTD/svg11.dtd">
<svg version="1.1" id="Capa_1" xmlns="http://www.w3.org/2000/svg" xmlns:xlink="http://www.w3.org/1999/xlink" x="0px" y="0px"
	 width="158px" height="45px" viewBox="0 0 158 45" enable-background="new 0 0 158 45" xml:space="preserve">
<g>
	<path fill="#2F3676" d="M14.078,6.473c0.238,0.102,0.439,0.252,0.604,0.45c0.136,0.164,0.244,0.344,0.324,0.542
		c0.08,0.199,0.119,0.424,0.119,0.678c0,0.306-0.077,0.607-0.232,0.903c-0.154,0.296-0.41,0.505-0.765,0.628
		c0.297,0.12,0.508,0.29,0.632,0.51s0.186,0.556,0.186,1.008v0.433c0,0.294,0.012,0.494,0.036,0.599
		c0.035,0.166,0.118,0.289,0.249,0.368v0.162h-1.487c-0.041-0.143-0.07-0.258-0.087-0.346c-0.035-0.181-0.054-0.366-0.057-0.556
		l-0.008-0.599c-0.006-0.411-0.077-0.685-0.213-0.822s-0.393-0.206-0.768-0.206h-1.316v2.528H9.977V6.307h3.084
		C13.501,6.315,13.841,6.371,14.078,6.473z M11.293,7.427v1.732h1.45c0.288,0,0.504-0.035,0.648-0.105
		c0.255-0.123,0.382-0.365,0.382-0.727c0-0.391-0.124-0.653-0.37-0.787c-0.139-0.076-0.347-0.114-0.624-0.114H11.293z"/>
	<path fill="#2F3676" d="M21.185,7.449h-3.412v1.369h3.132v1.12h-3.132v1.658h3.57v1.159h-4.887V6.307h4.729V7.449z"/>
	<path fill="#2F3676" d="M22.392,6.315h4.598v1.133H23.73v1.483h2.856v1.12H23.73v2.704h-1.338V6.315z"/>
	<path fill="#2F3676" d="M29.218,6.307h1.524l2.281,6.448h-1.461l-0.425-1.326h-2.375l-0.437,1.326h-1.409L29.218,6.307z
		 M29.129,10.318h1.651l-0.814-2.538L29.129,10.318z"/>
	<path fill="#2F3676" d="M34.46,6.98c0.52-0.531,1.18-0.796,1.982-0.796c1.074,0,1.858,0.356,2.354,1.067
		c0.274,0.4,0.421,0.801,0.441,1.203h-1.347c-0.086-0.309-0.196-0.542-0.33-0.7c-0.24-0.28-0.596-0.42-1.067-0.42
		c-0.48,0-0.859,0.197-1.136,0.593c-0.277,0.395-0.416,0.954-0.416,1.677c0,0.724,0.146,1.265,0.439,1.625
		c0.292,0.36,0.664,0.54,1.115,0.54c0.462,0,0.814-0.154,1.057-0.463c0.134-0.167,0.246-0.416,0.334-0.748h1.338
		c-0.115,0.703-0.41,1.274-0.885,1.714c-0.475,0.44-1.083,0.661-1.824,0.661c-0.917,0-1.639-0.297-2.164-0.892
		c-0.525-0.598-0.788-1.417-0.788-2.458C33.564,8.458,33.863,7.59,34.46,6.98z"/>
	<path fill="#2F3676" d="M40.93,6.98c0.52-0.531,1.18-0.796,1.982-0.796c1.074,0,1.858,0.356,2.354,1.067
		c0.274,0.4,0.421,0.801,0.441,1.203h-1.347c-0.086-0.309-0.196-0.542-0.33-0.7c-0.24-0.28-0.596-0.42-1.067-0.42
		c-0.48,0-0.859,0.197-1.136,0.593c-0.277,0.395-0.416,0.954-0.416,1.677c0,0.724,0.146,1.265,0.439,1.625
		c0.292,0.36,0.664,0.54,1.115,0.54c0.462,0,0.814-0.154,1.057-0.463c0.134-0.167,0.246-0.416,0.334-0.748h1.338
		c-0.115,0.703-0.41,1.274-0.885,1.714c-0.475,0.44-1.083,0.661-1.824,0.661c-0.917,0-1.639-0.297-2.164-0.892
		c-0.525-0.598-0.788-1.417-0.788-2.458C40.034,8.458,40.333,7.59,40.93,6.98z"/>
	<path fill="#2F3676" d="M48.014,12.755h-1.338V6.307h1.338V12.755z"/>
	<path fill="#2F3676" d="M54.238,12.182c-0.487,0.502-1.191,0.752-2.113,0.752s-1.626-0.25-2.113-0.752
		c-0.653-0.615-0.98-1.502-0.98-2.66c0-1.181,0.327-2.067,0.98-2.66C50.5,6.361,51.204,6.11,52.125,6.11s1.626,0.251,2.113,0.752
		c0.65,0.592,0.976,1.479,0.976,2.66C55.214,10.68,54.889,11.566,54.238,12.182z M53.396,11.202c0.313-0.394,0.47-0.954,0.47-1.68
		c0-0.723-0.157-1.282-0.47-1.678c-0.314-0.395-0.737-0.593-1.271-0.593s-0.959,0.197-1.277,0.591s-0.477,0.954-0.477,1.68
		s0.159,1.286,0.477,1.68c0.318,0.394,0.744,0.59,1.277,0.59S53.083,11.596,53.396,11.202z"/>
	<path fill="#2F3676" d="M56.22,6.307h1.413l2.56,4.496V6.307h1.255v6.448h-1.347L57.476,8.18v4.575H56.22V6.307z"/>
	<path fill="#2F3676" d="M64.556,6.307h1.524l2.281,6.448h-1.461l-0.425-1.326h-2.375l-0.437,1.326h-1.409L64.556,6.307z
		 M64.467,10.318h1.651l-0.814-2.538L64.467,10.318z"/>
	<path fill="#2F3676" d="M73.314,6.473c0.238,0.102,0.439,0.252,0.604,0.45c0.136,0.164,0.244,0.344,0.324,0.542
		c0.08,0.199,0.119,0.424,0.119,0.678c0,0.306-0.077,0.607-0.232,0.903c-0.154,0.296-0.41,0.505-0.765,0.628
		c0.297,0.12,0.508,0.29,0.632,0.51s0.186,0.556,0.186,1.008v0.433c0,0.294,0.012,0.494,0.036,0.599
		c0.035,0.166,0.118,0.289,0.249,0.368v0.162h-1.487c-0.041-0.143-0.07-0.258-0.087-0.346c-0.035-0.181-0.054-0.366-0.057-0.556
		l-0.008-0.599c-0.006-0.411-0.077-0.685-0.213-0.822s-0.393-0.206-0.768-0.206h-1.316v2.528h-1.317V6.307h3.084
		C72.737,6.315,73.077,6.371,73.314,6.473z M70.529,7.427v1.732h1.45c0.288,0,0.504-0.035,0.648-0.105
		c0.255-0.123,0.382-0.365,0.382-0.727c0-0.391-0.124-0.653-0.37-0.787c-0.139-0.076-0.347-0.114-0.624-0.114H70.529z"/>
	<path fill="#2F3676" d="M76.881,12.755h-1.338V6.307h1.338V12.755z"/>
	<path fill="#2F3676" d="M79.985,6.307h1.524l2.281,6.448H82.33l-0.426-1.326h-2.375l-0.437,1.326h-1.409L79.985,6.307z
		 M79.896,10.318h1.651l-0.814-2.538L79.896,10.318z"/>
</g>
<g>
	<path fill="#2F3676" d="M128.765,39.975h0.923v0.912h-0.923V39.975z"/>
	<path fill="#2F3676" d="M131.011,36.867c0.362-0.369,0.822-0.555,1.38-0.555c0.747,0,1.294,0.248,1.639,0.742
		c0.191,0.279,0.294,0.559,0.308,0.838h-0.938c-0.06-0.215-0.137-0.377-0.23-0.486c-0.167-0.195-0.414-0.293-0.742-0.293
		c-0.334,0-0.598,0.137-0.791,0.412c-0.192,0.275-0.289,0.664-0.289,1.168s0.102,0.881,0.306,1.131
		c0.203,0.252,0.462,0.377,0.775,0.377c0.322,0,0.567-0.107,0.736-0.322c0.093-0.117,0.17-0.291,0.231-0.521h0.933
		c-0.081,0.488-0.286,0.887-0.616,1.193c-0.331,0.307-0.754,0.461-1.27,0.461c-0.639,0-1.141-0.207-1.507-0.621
		c-0.365-0.418-0.548-0.988-0.548-1.713C130.388,37.895,130.596,37.291,131.011,36.867z"/>
	<path fill="#2F3676" d="M138.542,40.486c-0.339,0.35-0.829,0.525-1.471,0.525s-1.132-0.176-1.471-0.525
		c-0.454-0.428-0.682-1.045-0.682-1.85c0-0.822,0.228-1.439,0.682-1.852c0.339-0.35,0.829-0.525,1.471-0.525
		s1.132,0.176,1.471,0.525c0.453,0.412,0.68,1.029,0.68,1.852C139.222,39.441,138.995,40.059,138.542,40.486z M137.956,39.805
		c0.219-0.273,0.327-0.664,0.327-1.168s-0.108-0.895-0.327-1.168c-0.218-0.275-0.513-0.414-0.885-0.414
		c-0.371,0-0.668,0.139-0.889,0.412c-0.222,0.273-0.332,0.664-0.332,1.17c0,0.504,0.11,0.895,0.332,1.168
		c0.221,0.273,0.518,0.412,0.889,0.412C137.443,40.217,137.738,40.078,137.956,39.805z"/>
	<path fill="#2F3676" d="M142.914,36.398h1.35v4.488h-0.874V37.85c0-0.086,0.001-0.209,0.003-0.367
		c0.002-0.156,0.003-0.277,0.003-0.363l-0.85,3.768h-0.912l-0.845-3.768c0,0.086,0.001,0.207,0.004,0.363
		c0.002,0.158,0.003,0.281,0.003,0.367v3.037h-0.874v-4.488h1.364l0.817,3.529L142.914,36.398z"/>
</g>
<g>
	<path fill="#C4211A" d="M19.394,22.207c0.295-1.867-1.302-1.842-2.776-1.842c-3.538,0-3.882,1.081-4.545,4.053l-0.639,2.998
		c-0.688,3.267,0.368,3.611,2.923,3.611c2.506,0,3.267-0.566,3.833-3.121H14.8l0.712-3.414h8.377l-0.688,3.218
		c-1.302,6.216-3.12,7.345-9.704,7.345c-5.798,0-8.549-0.982-7.272-6.951l1.007-4.766c1.302-6.093,4.84-7.002,10.245-7.002
		c4.766,0,8.131,0.024,6.903,5.871H19.394z"/>
	<path fill="#C4211A" d="M24.826,28.3l1.105-5.208c1.204-5.675,4.987-6.756,9.974-6.756c4.987,0,8.279,1.081,7.075,6.756
		L41.875,28.3c-1.204,5.675-4.962,6.755-9.95,6.755C26.938,35.055,23.622,33.975,24.826,28.3z M36.937,27.76l0.884-4.152
		c0.565-2.727-0.27-2.997-2.825-2.997c-2.555,0-3.464,0.271-4.103,2.997l-0.884,4.152c-0.516,2.751,0.27,3.021,2.825,3.021
		S36.348,30.511,36.937,27.76z"/>
	<path fill="#C4211A" d="M47.7,34.908h-4.914l3.906-18.425h8.303l2.285,14.15h0.197l2.702-14.15h4.914l-3.906,18.425H52.81
		l-2.211-14.15h-0.196L47.7,34.908z"/>
	<path fill="#C4211A" d="M81.359,20.61l-10.932,9.876l-0.024,0.147h8.82l-0.909,4.274h-15.06l0.884-4.152l10.785-9.851l0.024-0.147
		h-8.131l0.909-4.274h14.494L81.359,20.61z"/>
	<path fill="#C4211A" d="M85.268,31.739l-1.572,3.169h-5.109l9.434-18.425h7.469l1.695,18.425h-5.012l-0.295-3.169H85.268z
		 M91.09,20.168h-0.049l-3.955,7.984h4.569L91.09,20.168z M95.562,13.535l-5.921,1.744l-0.368-1.523l5.65-2.948L95.562,13.535z"/>
	<path fill="#C4211A" d="M104.139,30.634h7.689l-0.909,4.274H98.316l3.906-18.425h4.913L104.139,30.634z"/>
	<path fill="#C4211A" d="M120.084,23.878h7.861l-0.712,3.415h-7.861l-0.762,3.586h8.549l-0.859,4.029h-13.463l3.906-18.425h13.29
		l-0.835,4.029h-8.377L120.084,23.878z"/>
	<path fill="#C4211A" d="M146.594,20.61l-10.933,9.876l-0.024,0.147h8.819l-0.909,4.274h-15.059l0.884-4.152l10.785-9.851
		l0.024-0.147h-8.132l0.909-4.274h14.494L146.594,20.61z"/>
</g>
</svg>
